<svg width="79" height="79" viewBox="0 0 79 79" fill="none" xmlns="http://www.w3.org/2000/svg">
<path d="M9.875 59.25H34.5625V64.1875H9.875V59.25ZM9.875 44.4375H34.5625V49.375H9.875V44.4375ZM64.1875 34.5625H14.8125C13.503 34.5625 12.2471 34.0423 11.3212 33.1163C10.3952 32.1904 9.875 30.9345 9.875 29.625V14.8125C9.875 13.503 10.3952 12.2471 11.3212 11.3212C12.2471 10.3952 13.503 9.875 14.8125 9.875H64.1875C65.497 9.875 66.7529 10.3952 67.6788 11.3212C68.6048 12.2471 69.125 13.503 69.125 14.8125V29.625C69.125 30.9345 68.6048 32.1904 67.6788 33.1163C66.7529 34.0423 65.497 34.5625 64.1875 34.5625ZM14.8125 14.8125V29.625H64.1875V14.8125H14.8125ZM64.1875 69.125H49.375C48.0655 69.125 46.8096 68.6048 45.8837 67.6788C44.9577 66.7529 44.4375 65.497 44.4375 64.1875V49.375C44.4375 48.0655 44.9577 46.8096 45.8837 45.8837C46.8096 44.9577 48.0655 44.4375 49.375 44.4375H64.1875C65.497 44.4375 66.7529 44.9577 67.6788 45.8837C68.6048 46.8096 69.125 48.0655 69.125 49.375V64.1875C69.125 65.497 68.6048 66.7529 67.6788 67.6788C66.7529 68.6048 65.497 69.125 64.1875 69.125ZM49.375 49.375V64.1875H64.1875V49.375H49.375Z" fill="white"/>
</svg>
