<svg width="25" height="25" viewBox="0 0 25 25" fill="none" xmlns="http://www.w3.org/2000/svg">
<path fill-rule="evenodd" clip-rule="evenodd" d="M1.04163 2.95627C1.04163 2.44849 1.24334 1.96151 1.60239 1.60246C1.96145 1.2434 2.44843 1.04169 2.95621 1.04169H22.0416C22.2933 1.04128 22.5425 1.09051 22.7751 1.18655C23.0077 1.2826 23.2191 1.42357 23.3971 1.60141C23.5751 1.77925 23.7163 1.99046 23.8126 2.22295C23.9089 2.45544 23.9584 2.70463 23.9583 2.95627V22.0417C23.9586 22.2934 23.9092 22.5427 23.8131 22.7752C23.7169 23.0078 23.5758 23.2192 23.3979 23.3972C23.22 23.5752 23.0087 23.7164 22.7761 23.8127C22.5436 23.909 22.2944 23.9585 22.0427 23.9584H2.95621C2.7047 23.9584 2.45565 23.9088 2.22329 23.8125C1.99093 23.7162 1.77983 23.5751 1.60203 23.3972C1.42423 23.2193 1.28322 23.0081 1.18707 22.7757C1.09091 22.5433 1.04149 22.2942 1.04163 22.0427V2.95627ZM10.1125 9.77919H13.2156V11.3375C13.6635 10.4417 14.8093 9.63544 16.5312 9.63544C19.8323 9.63544 20.6145 11.4198 20.6145 14.6938V20.7584H17.2739V15.4396C17.2739 13.575 16.826 12.5229 15.6885 12.5229C14.1104 12.5229 13.4541 13.6573 13.4541 15.4396V20.7584H10.1125V9.77919ZM4.38329 20.6156H7.72496V9.63544H4.38329V20.6146V20.6156ZM8.20308 6.05419C8.20939 6.34031 8.15847 6.6248 8.05333 6.89098C7.9482 7.15715 7.79095 7.39964 7.59083 7.60422C7.3907 7.8088 7.15173 7.97135 6.88793 8.08232C6.62414 8.19329 6.34083 8.25046 6.05465 8.25046C5.76846 8.25046 5.48516 8.19329 5.22136 8.08232C4.95757 7.97135 4.71859 7.8088 4.51847 7.60422C4.31834 7.39964 4.1611 7.15715 4.05596 6.89098C3.95082 6.6248 3.89991 6.34031 3.90621 6.05419C3.91858 5.49258 4.15036 4.95814 4.55192 4.56532C4.95349 4.1725 5.4929 3.95254 6.05465 3.95254C6.61639 3.95254 7.15581 4.1725 7.55737 4.56532C7.95893 4.95814 8.19072 5.49258 8.20308 6.05419V6.05419Z" fill="white"/>
</svg>
